<svg width="35" height="31" viewBox="0 0 35 31" fill="none" xmlns="http://www.w3.org/2000/svg">
<path d="M0.493239 0C0.221957 0 0 0.217969 0 0.484375C0 0.750781 0.221957 0.96875 0.493239 0.96875H2.81763C3.52049 0.96875 4.13087 1.45918 4.26651 2.14336L7.92881 20.5133C8.24325 22.1057 9.66747 23.25 11.3198 23.25H31.074C31.3453 23.25 31.5673 23.032 31.5673 22.7656C31.5673 22.4992 31.3453 22.2812 31.074 22.2812H11.3137C10.1361 22.2812 9.11875 21.4639 8.89062 20.3256L8.31723 17.4375H29.2182C30.8212 17.4375 32.2146 16.3537 32.5784 14.8158L34.9336 4.91035C35.2974 3.39062 34.1198 1.9375 32.5352 1.9375H5.22833C4.99404 0.811328 3.98907 0 2.81763 0H0.493239ZM5.42562 2.90625H32.5352C33.4909 2.90625 34.1938 3.77813 33.978 4.69238L31.6228 14.5979C31.3638 15.6938 30.365 16.4688 29.2182 16.4688H8.1261L5.42562 2.90625ZM8.87829 28.0938C8.87829 27.5799 9.08616 27.0871 9.45616 26.7237C9.82616 26.3604 10.328 26.1562 10.8512 26.1562C11.3745 26.1562 11.8763 26.3604 12.2463 26.7237C12.6163 27.0871 12.8242 27.5799 12.8242 28.0938C12.8242 28.6076 12.6163 29.1004 12.2463 29.4638C11.8763 29.8271 11.3745 30.0312 10.8512 30.0312C10.328 30.0312 9.82616 29.8271 9.45616 29.4638C9.08616 29.1004 8.87829 28.6076 8.87829 28.0938ZM13.8107 28.0938C13.8107 27.7121 13.7341 27.3342 13.5854 26.9816C13.4367 26.629 13.2187 26.3086 12.9439 26.0387C12.6691 25.7689 12.3428 25.5548 11.9838 25.4087C11.6247 25.2627 11.2399 25.1875 10.8512 25.1875C10.4626 25.1875 10.0778 25.2627 9.71872 25.4087C9.35967 25.5548 9.03342 25.7689 8.75861 26.0387C8.4838 26.3086 8.26581 26.629 8.11709 26.9816C7.96836 27.3342 7.89182 27.7121 7.89182 28.0938C7.89182 28.4754 7.96836 28.8533 8.11709 29.2059C8.26581 29.5585 8.4838 29.8789 8.75861 30.1488C9.03342 30.4186 9.35967 30.6327 9.71872 30.7788C10.0778 30.9248 10.4626 31 10.8512 31C11.2399 31 11.6247 30.9248 11.9838 30.7788C12.3428 30.6327 12.6691 30.4186 12.9439 30.1488C13.2187 29.8789 13.4367 29.5585 13.5854 29.2059C13.7341 28.8533 13.8107 28.4754 13.8107 28.0938ZM28.6078 26.1562C29.1311 26.1562 29.6329 26.3604 30.0029 26.7237C30.3729 27.0871 30.5808 27.5799 30.5808 28.0938C30.5808 28.6076 30.3729 29.1004 30.0029 29.4638C29.6329 29.8271 29.1311 30.0312 28.6078 30.0312C28.0846 30.0312 27.5827 29.8271 27.2127 29.4638C26.8427 29.1004 26.6349 28.6076 26.6349 28.0938C26.6349 27.5799 26.8427 27.0871 27.2127 26.7237C27.5827 26.3604 28.0846 26.1562 28.6078 26.1562ZM28.6078 31C29.3927 31 30.1455 30.6938 30.7005 30.1488C31.2555 29.6038 31.5673 28.8645 31.5673 28.0938C31.5673 27.323 31.2555 26.5837 30.7005 26.0387C30.1455 25.4937 29.3927 25.1875 28.6078 25.1875C27.8229 25.1875 27.0702 25.4937 26.5152 26.0387C25.9602 26.5837 25.6484 27.323 25.6484 28.0938C25.6484 28.8645 25.9602 29.6038 26.5152 30.1488C27.0702 30.6938 27.8229 31 28.6078 31Z" fill="#fff"/>
</svg>
