<svg width="27" height="27" viewBox="0 0 27 27" fill="none" xmlns="http://www.w3.org/2000/svg">
<g id="handshake_FILL0_wght400_GRAD0_opsz24 1">
<path id="Vector" d="M13.3594 22.5C13.4344 22.5 13.5094 22.4812 13.5844 22.4438C13.6594 22.4062 13.7156 22.3687 13.7531 22.3312L22.9781 13.1062C23.2031 12.8812 23.3672 12.6281 23.4703 12.3469C23.5734 12.0656 23.625 11.7844 23.625 11.5031C23.625 11.2031 23.5734 10.9172 23.4703 10.6453C23.3672 10.3734 23.2031 10.1344 22.9781 9.92812L18.1969 5.14687C17.9906 4.92188 17.7516 4.75781 17.4797 4.65469C17.2078 4.55156 16.9219 4.5 16.6219 4.5C16.3406 4.5 16.0594 4.55156 15.7781 4.65469C15.4969 4.75781 15.2437 4.92188 15.0187 5.14687L14.7094 5.45625L16.7906 7.56562C17.0719 7.82812 17.2781 8.12812 17.4094 8.46562C17.5406 8.80312 17.6062 9.15937 17.6062 9.53437C17.6062 10.3219 17.3391 10.9828 16.8047 11.5172C16.2703 12.0516 15.6094 12.3187 14.8219 12.3187C14.4469 12.3187 14.0859 12.2531 13.7391 12.1219C13.3922 11.9906 13.0875 11.7937 12.825 11.5312L10.7156 9.45L5.79375 14.3719C5.7375 14.4281 5.69531 14.4891 5.66718 14.5547C5.63906 14.6203 5.625 14.6906 5.625 14.7656C5.625 14.9156 5.68125 15.0516 5.79375 15.1734C5.90625 15.2953 6.0375 15.3562 6.1875 15.3562C6.2625 15.3562 6.3375 15.3375 6.4125 15.3C6.4875 15.2625 6.54375 15.225 6.58125 15.1875L10.4062 11.3625L11.9812 12.9375L8.18437 16.7625C8.12812 16.8187 8.08593 16.8797 8.05781 16.9453C8.02968 17.0109 8.01562 17.0812 8.01562 17.1562C8.01562 17.3062 8.07187 17.4375 8.18437 17.55C8.29687 17.6625 8.42812 17.7188 8.57812 17.7188C8.65312 17.7188 8.72812 17.7 8.80312 17.6625C8.87812 17.625 8.93437 17.5875 8.97187 17.55L12.7969 13.7531L14.3719 15.3281L10.575 19.1531C10.5187 19.1906 10.4766 19.2469 10.4484 19.3219C10.4203 19.3969 10.4062 19.4719 10.4062 19.5469C10.4062 19.6969 10.4625 19.8281 10.575 19.9406C10.6875 20.0531 10.8187 20.1094 10.9687 20.1094C11.0437 20.1094 11.1141 20.0953 11.1797 20.0672C11.2453 20.0391 11.3062 19.9969 11.3625 19.9406L15.1875 16.1437L16.7625 17.7188L12.9375 21.5437C12.8812 21.6 12.8391 21.6609 12.8109 21.7266C12.7828 21.7922 12.7687 21.8625 12.7687 21.9375C12.7687 22.0875 12.8297 22.2188 12.9516 22.3312C13.0734 22.4438 13.2094 22.5 13.3594 22.5ZM13.3312 24.75C12.6375 24.75 12.0234 24.5203 11.4891 24.0609C10.9547 23.6016 10.6406 23.025 10.5469 22.3312C9.90937 22.2375 9.375 21.975 8.94375 21.5437C8.5125 21.1125 8.25 20.5781 8.15625 19.9406C7.51875 19.8469 6.98906 19.5797 6.56718 19.1391C6.14531 18.6984 5.8875 18.1687 5.79375 17.55C5.08125 17.4562 4.5 17.1469 4.05 16.6219C3.6 16.0969 3.375 15.4781 3.375 14.7656C3.375 14.3906 3.44531 14.0297 3.58593 13.6828C3.72656 13.3359 3.92812 13.0312 4.19062 12.7688L10.7156 6.27187L14.4 9.95625C14.4375 10.0125 14.4937 10.0547 14.5687 10.0828C14.6437 10.1109 14.7187 10.125 14.7937 10.125C14.9625 10.125 15.1031 10.0734 15.2156 9.97031C15.3281 9.86719 15.3844 9.73125 15.3844 9.5625C15.3844 9.4875 15.3703 9.4125 15.3422 9.3375C15.3141 9.2625 15.2719 9.20625 15.2156 9.16875L11.1937 5.14687C10.9875 4.92188 10.7484 4.75781 10.4766 4.65469C10.2047 4.55156 9.91875 4.5 9.61875 4.5C9.3375 4.5 9.05625 4.55156 8.775 4.65469C8.49375 4.75781 8.24062 4.92188 8.01562 5.14687L4.05 9.14062C3.88125 9.30937 3.74062 9.50625 3.62812 9.73125C3.51562 9.95625 3.44062 10.1812 3.40312 10.4062C3.36562 10.6312 3.36562 10.8609 3.40312 11.0953C3.44062 11.3297 3.51562 11.55 3.62812 11.7562L1.99687 13.3875C1.67812 12.9563 1.44375 12.4828 1.29375 11.9672C1.14375 11.4516 1.0875 10.9312 1.125 10.4062C1.1625 9.88125 1.29375 9.37031 1.51875 8.87344C1.74375 8.37656 2.05312 7.93125 2.44687 7.5375L6.4125 3.57187C6.8625 3.14062 7.36406 2.8125 7.91718 2.5875C8.47031 2.3625 9.0375 2.25 9.61875 2.25C10.2 2.25 10.7672 2.3625 11.3203 2.5875C11.8734 2.8125 12.3656 3.14062 12.7969 3.57187L13.1062 3.88125L13.4156 3.57187C13.8656 3.14062 14.3672 2.8125 14.9203 2.5875C15.4734 2.3625 16.0406 2.25 16.6219 2.25C17.2031 2.25 17.7703 2.3625 18.3234 2.5875C18.8766 2.8125 19.3687 3.14062 19.8 3.57187L24.5531 8.325C24.9844 8.75625 25.3125 9.25312 25.5375 9.81562C25.7625 10.3781 25.875 10.95 25.875 11.5312C25.875 12.1125 25.7625 12.6797 25.5375 13.2328C25.3125 13.7859 24.9844 14.2781 24.5531 14.7094L15.3281 23.9062C15.0656 24.1687 14.7609 24.375 14.4141 24.525C14.0672 24.675 13.7062 24.75 13.3312 24.75Z" fill="black"/>
</g>
</svg>
